<svg xmlns="http://www.w3.org/2000/svg" width="77" height="64" viewBox="0 0 77 64" fill="none">
  <path d="M1.67846 12.1953H4.16689C6.52771 12.0039 12.5127 10.6257 17.5661 6.64419C23.6915 1.53971 41.0723 -5.37685 61.5922 7.79269C63.3788 8.9412 68.1387 11.4296 72.8859 12.1953H74.8001C78.1818 24.127 77.0971 50.0578 45.7046 58.327C44.3646 58.7736 41.0722 60.356 38.6221 63.1124C37.4098 61.9001 34.3343 59.2458 31.7311 58.327C31.3392 58.1887 31.0252 58.0849 30.7779 58.0084C30.3657 57.9841 30.0093 57.8634 29.9913 57.8275C18.4292 55.3054 -1.9616 42.9004 0.721371 12.1953H1.67846Z" fill="#0D76D3"/>
  <path d="M1.68533 12.8276H4.17942C6.5456 12.6505 12.5442 11.3756 17.6091 7.6927C23.7484 2.97096 41.1686 -3.42698 61.7352 8.75509C63.5259 9.81748 68.2966 12.1193 73.0546 12.8276H74.9731C78.3625 23.8646 77.2753 47.851 45.8115 55.5002C44.4685 55.9134 41.1686 57.3771 38.7129 59.9269C37.4978 58.8054 34.4154 56.3501 31.8062 55.5002C31.4134 55.3723 31.0988 55.2763 30.8509 55.2055C30.4378 55.183 30.0806 55.0714 30.0625 55.0382C18.4741 52.7052 -1.96299 41.2303 0.726068 12.8276H1.68533Z" fill="white"/>
  <path d="M1.68558 11.2962H4.17966C6.54585 11.1191 12.5444 9.84428 17.6094 6.16132C23.7486 1.43959 41.1689 -4.95836 61.7355 7.22371C63.5261 8.2861 68.2969 10.5879 73.0548 11.2962H74.9733C78.3627 22.3333 77.2756 46.3197 45.8117 53.9689C44.4687 54.382 41.1689 55.8458 38.7132 58.3955C37.4981 57.2741 34.4157 54.8188 31.8065 53.9689C31.4137 53.8409 31.099 53.7449 30.8511 53.6741C30.438 53.6516 30.0808 53.54 30.0627 53.5069C18.4743 51.1738 -1.96275 39.6989 0.726312 11.2962H1.68558Z" fill="#0D76D3"/>
</svg>