<svg width="52" height="56" viewBox="0 0 52 56" fill="none" xmlns="http://www.w3.org/2000/svg">
<path d="M5.51097 1.88916L0.97699 5.91937C2.79058 8.74051 3.07606 11.5449 2.99209 12.5944H4.37748C13.9492 7.25437 20.1205 6.08729 22.0096 6.17125H29.0625C31.9844 5.76823 42.2026 10.2854 46.9465 12.5944H47.9541C47.7526 9.37023 49.3815 6.80097 50.2211 5.91937L45.939 1.88916C37.8786 5.81861 31.9172 2.26699 29.9441 0H21.128C15.788 5.23927 8.49165 3.44247 5.51097 1.88916Z" fill="#0D76D3"/>
<path d="M6.13909 2.70779L1.73267 6.33498C3.49524 8.87401 3.77268 11.3979 3.69108 12.3425H5.03749C14.3399 7.53648 20.3376 6.48611 22.1736 6.56168H29.028C31.8677 6.19896 41.7985 10.2644 46.4089 12.3425H47.3882C47.1923 9.44076 48.7754 7.12843 49.5914 6.33498L45.4297 2.70779C37.5961 6.2443 31.8025 3.04784 29.8848 1.00755H21.3168C16.127 5.72289 9.03591 4.10577 6.13909 2.70779Z" fill="white"/>
<path d="M6.13909 3.17379L1.73267 6.72037C3.49524 9.20298 3.77268 11.6708 3.69108 12.5944H5.03749C14.3399 7.89518 20.3376 6.86815 22.1736 6.94203H29.028C31.8677 6.58737 41.7985 10.5625 46.4089 12.5944H47.3882C47.1923 9.75713 48.7754 7.49619 49.5914 6.72037L45.4297 3.17379C37.5961 6.63171 31.8025 3.50628 29.8848 1.51133H21.3168C16.127 6.12189 9.03591 4.5407 6.13909 3.17379Z" fill="#0D76D3"/>
<path d="M1.76224 22.4989H3.39952C4.95282 22.373 8.89067 21.4662 12.2156 18.8465C16.2458 15.488 27.6815 10.9372 41.1827 19.6022C42.3582 20.3579 45.49 21.9951 48.6134 22.4989H49.8728C52.0978 30.3494 51.3842 47.4106 30.7294 52.8514C29.8477 53.1453 27.6815 54.1864 26.0694 56C25.2718 55.2024 23.2483 53.4559 21.5354 52.8514C21.2776 52.7604 21.071 52.6921 20.9083 52.6418C20.6371 52.6258 20.4026 52.5463 20.3908 52.5228C12.7834 50.8633 -0.632741 42.7014 1.13252 22.4989H1.76224Z" fill="#0D76D3"/>
<path d="M1.76678 22.9149H3.40777C4.96461 22.7984 8.91141 21.9596 12.2439 19.5364C16.2832 16.4297 27.7449 12.2202 41.2768 20.2354C42.455 20.9344 45.5939 22.4489 48.7244 22.9149H49.9867C52.2168 30.1768 51.5014 45.9587 30.7997 50.9915C29.9161 51.2633 27.7449 52.2264 26.1292 53.904C25.3297 53.1662 23.3016 51.5507 21.5849 50.9915C21.3265 50.9073 21.1194 50.8442 20.9563 50.7976C20.6846 50.7828 20.4495 50.7093 20.4376 50.6875C12.813 49.1525 -0.633646 41.6026 1.13563 22.9149H1.76678Z" fill="white"/>
<path d="M1.76672 21.9073H3.40771C4.96455 21.7908 8.91134 20.952 12.2438 18.5288C16.2832 15.4222 27.7449 11.2126 41.2767 19.2278C42.4549 19.9268 45.5938 21.4413 48.7243 21.9073H49.9866C52.2167 29.1692 51.5014 44.9511 30.7996 49.984C29.916 50.2558 27.7449 51.2189 26.1291 52.8965C25.3297 52.1586 23.3016 50.5432 21.5848 49.984C21.3264 49.8998 21.1194 49.8366 20.9563 49.79C20.6845 49.7752 20.4495 49.7018 20.4376 49.68C12.8129 48.1449 -0.633707 40.595 1.13557 21.9073H1.76672Z" fill="#0D76D3"/>
<path d="M1.31848 18.274L0.94565 17.7613L3.36094 16.0048L3.73377 16.5174L2.83342 17.1722L4.5994 19.6004L3.98481 20.0474L2.21883 17.6192L1.31848 18.274Z" fill="black"/>
<path d="M7.22648 17.7373L5.44259 14.5686L6.69276 13.8648C6.93207 13.73 7.1604 13.6579 7.37776 13.6483C7.59557 13.637 7.79268 13.6843 7.96907 13.7901C8.14591 13.8943 8.29327 14.0511 8.41115 14.2605C8.52962 14.4709 8.58614 14.6775 8.58073 14.8803C8.57474 15.082 8.50826 15.2715 8.3813 15.449C8.25537 15.6258 8.07068 15.7827 7.82725 15.9198L6.9902 16.391L6.68708 15.8526L7.41582 15.4423C7.54373 15.3703 7.6401 15.293 7.70494 15.2103C7.76978 15.1276 7.80308 15.0396 7.80486 14.9462C7.80766 14.8523 7.77974 14.7532 7.72109 14.649C7.66186 14.5438 7.59077 14.467 7.50783 14.4186C7.42592 14.3696 7.33171 14.3507 7.22519 14.3617C7.11913 14.3712 7.00162 14.4122 6.87269 14.4848L6.42089 14.7391L7.89643 17.3601L7.22648 17.7373ZM8.12591 15.3319L9.72526 16.3306L8.98568 16.7469L7.40335 15.7387L8.12591 15.3319Z" fill="black"/>
<path d="M12.1945 15.1047L11.4303 15.4126L11.2357 11.5706L12.1547 11.2003L14.6764 14.1047L13.9122 14.4126L12.019 12.1509L11.9926 12.1615L12.1945 15.1047ZM11.6126 13.7982L13.4176 13.0709L13.6419 13.6276L11.8369 14.3548L11.6126 13.7982Z" fill="black"/>
<path d="M18.2502 10.9917L17.4941 11.1739C17.4568 11.0794 17.4076 10.9993 17.3468 10.9336C17.2856 10.8668 17.2151 10.8144 17.1354 10.7764C17.0556 10.7384 16.9685 10.7155 16.8741 10.7078C16.7809 10.6998 16.6836 10.7081 16.5823 10.7325C16.3994 10.7765 16.2509 10.8604 16.137 10.984C16.0229 11.1065 15.9492 11.2631 15.916 11.4537C15.8825 11.6432 15.8953 11.8605 15.9544 12.1056C16.0151 12.3576 16.1035 12.5604 16.2196 12.7138C16.3369 12.867 16.4739 12.9709 16.6308 13.0257C16.7877 13.0804 16.9553 13.0863 17.1337 13.0433C17.2338 13.0192 17.3232 12.9836 17.402 12.9367C17.4819 12.8894 17.5492 12.8324 17.6037 12.7657C17.658 12.6978 17.6981 12.6218 17.7241 12.5376C17.7512 12.4531 17.7621 12.3616 17.7566 12.2631L18.5135 12.0844C18.533 12.2514 18.5218 12.4197 18.4799 12.5893C18.4388 12.7574 18.367 12.9166 18.2644 13.0667C18.1626 13.2155 18.0297 13.3461 17.8657 13.4587C17.7025 13.5698 17.5076 13.6527 17.2809 13.7074C16.9656 13.7833 16.6664 13.7799 16.3835 13.6971C16.1017 13.614 15.8563 13.4546 15.6473 13.2188C15.4394 12.9828 15.2892 12.6726 15.1966 12.2882C15.1037 11.9027 15.0971 11.5573 15.177 11.2519C15.2568 10.9465 15.404 10.6931 15.6184 10.4917C15.8326 10.2891 16.0951 10.1504 16.4058 10.0755C16.6106 10.0261 16.8074 10.0092 16.9962 10.0245C17.1861 10.0397 17.3623 10.0861 17.5247 10.1639C17.6869 10.2405 17.8296 10.3479 17.9531 10.4862C18.0776 10.6242 18.1767 10.7927 18.2502 10.9917Z" fill="black"/>
<path d="M20.095 13.0374L19.6961 9.42299L20.4603 9.33866L20.6362 10.9323L20.6838 10.9271L21.8087 9.18986L22.7246 9.08878L21.5619 10.8552L23.1394 12.7014L22.2252 12.8023L21.0711 11.4256L20.7458 11.9259L20.8592 12.9531L20.095 13.0374Z" fill="black"/>
<path d="M24.6684 12.5823L24.5936 8.94674L26.0279 8.91721C26.3037 8.91154 26.5397 8.95936 26.7359 9.0607C26.9321 9.16085 27.0831 9.30278 27.1887 9.48648C27.2954 9.66898 27.3513 9.88095 27.3563 10.1224C27.3612 10.3638 27.3135 10.5779 27.2132 10.7647C27.1129 10.9514 26.9649 11.0983 26.7694 11.2053C26.5751 11.3124 26.3383 11.3687 26.059 11.3745L25.1447 11.3933L25.1321 10.7773L25.922 10.761C26.0699 10.758 26.1913 10.73 26.2861 10.6772C26.3821 10.6231 26.4528 10.55 26.4983 10.4579C26.5449 10.3646 26.567 10.2582 26.5645 10.1387C26.562 10.018 26.5356 9.91313 26.4852 9.82419C26.436 9.73403 26.3624 9.6651 26.2643 9.6174C26.1662 9.5685 26.0426 9.54559 25.8935 9.54866L25.3752 9.55933L25.4371 12.5665L24.6684 12.5823Z" fill="black"/>
<path d="M29.7563 12.8497L28.9396 12.741L30.6637 9.30204L31.6458 9.43273L32.4087 13.2027L31.592 13.094L31.0592 10.193L31.031 10.1892L29.7563 12.8497ZM29.8938 11.4261L31.8228 11.6828L31.7437 12.2777L29.8146 12.021L29.8938 11.4261Z" fill="black"/>
<path d="M34.3006 10.5533L34.4458 9.93625L37.3529 10.6206L37.2076 11.2376L36.124 10.9825L35.436 13.9051L34.6963 13.731L35.3842 10.8084L34.3006 10.5533Z" fill="black"/>
<path d="M38.5696 15.1328L39.9163 11.755L41.249 12.2864C41.5041 12.3881 41.7036 12.5205 41.8475 12.6837C41.993 12.8462 42.0799 13.0293 42.1083 13.233C42.1382 13.4361 42.1086 13.6492 42.0196 13.8724C41.9302 14.0967 41.8049 14.2704 41.6437 14.3935C41.4829 14.5154 41.2936 14.5827 41.0758 14.5952C40.8591 14.6082 40.621 14.563 40.3615 14.4595L39.4692 14.1037L39.6981 13.5298L40.4749 13.8395C40.6112 13.8939 40.7319 13.9203 40.837 13.9189C40.9421 13.9175 41.0315 13.8881 41.1053 13.8309C41.1802 13.7741 41.2398 13.6902 41.284 13.5791C41.3288 13.467 41.3439 13.3634 41.3295 13.2685C41.3162 13.174 41.2718 13.0887 41.1964 13.0128C41.1224 12.9361 41.0167 12.8704 40.8793 12.8156L40.3977 12.6236L39.2837 15.4175L38.5696 15.1328ZM41.0066 14.3229L41.2332 16.1948L40.4448 15.8805L40.2364 14.0158L41.0066 14.3229Z" fill="black"/>
<path d="M46.963 17.639C46.7537 17.9757 46.5117 18.2225 46.2371 18.3794C45.9636 18.5369 45.6785 18.6098 45.3819 18.5982C45.0869 18.5862 44.8031 18.4955 44.5307 18.3262C44.2563 18.1555 44.0487 17.9401 43.9081 17.6798C43.7675 17.4195 43.7073 17.1319 43.7275 16.8169C43.7477 16.5019 43.8622 16.1765 44.0709 15.8408C44.2803 15.504 44.5218 15.2569 44.7953 15.0994C45.0689 14.942 45.3531 14.8692 45.6482 14.8812C45.9438 14.8922 46.2288 14.983 46.5033 15.1536C46.7757 15.323 46.9822 15.5378 47.1229 15.7981C47.2651 16.058 47.3261 16.3454 47.3059 16.6604C47.2867 16.976 47.1724 17.3022 46.963 17.639ZM46.3011 17.2274C46.4367 17.0093 46.5184 16.805 46.5462 16.6146C46.575 16.4248 46.5546 16.2546 46.4852 16.1041C46.4157 15.9536 46.302 15.8292 46.1442 15.7311C45.9864 15.633 45.8246 15.5861 45.6588 15.5903C45.4931 15.5946 45.331 15.6513 45.1725 15.7605C45.0151 15.8703 44.8685 16.0342 44.7329 16.2524C44.5973 16.4705 44.5151 16.6745 44.4863 16.8643C44.4585 17.0547 44.4793 17.2251 44.5488 17.3757C44.6183 17.5262 44.732 17.6505 44.8898 17.7487C45.0476 17.8468 45.2094 17.8937 45.3751 17.8894C45.5409 17.8851 45.7025 17.8281 45.8599 17.7183C46.0184 17.6092 46.1655 17.4455 46.3011 17.2274Z" fill="black"/>
<path d="M46.8438 19.9811L49.2316 17.2385L49.8114 17.7434L47.8399 20.0079L49.0156 21.0315L48.5994 21.5096L46.8438 19.9811Z" fill="black"/>
<g filter="url(#filter0_d_1_11)">
<path d="M20.1107 39.2945L21.6047 32.9615L16.594 28.702L23.2136 28.1385L25.7879 22.1661L28.3622 28.1385L34.9818 28.702L29.9711 32.9615L31.4651 39.2945L25.7879 35.9365L20.1107 39.2945Z" fill="white"/>
</g>
<defs>
<filter id="filter0_d_1_11" x="12.594" y="22.1661" width="26.3878" height="25.1284" filterUnits="userSpaceOnUse" color-interpolation-filters="sRGB">
<feFlood flood-opacity="0" result="BackgroundImageFix"/>
<feColorMatrix in="SourceAlpha" type="matrix" values="0 0 0 0 0 0 0 0 0 0 0 0 0 0 0 0 0 0 127 0" result="hardAlpha"/>
<feOffset dy="4"/>
<feGaussianBlur stdDeviation="2"/>
<feComposite in2="hardAlpha" operator="out"/>
<feColorMatrix type="matrix" values="0 0 0 0 0 0 0 0 0 0 0 0 0 0 0 0 0 0 0.25 0"/>
<feBlend mode="normal" in2="BackgroundImageFix" result="effect1_dropShadow_1_11"/>
<feBlend mode="normal" in="SourceGraphic" in2="effect1_dropShadow_1_11" result="shape"/>
</filter>
</defs>
</svg>
